<svg width="95" height="20" viewBox="0 0 95 20" fill="none" xmlns="http://www.w3.org/2000/svg">
<g clip-path="url(#clip0_4563_1259)">
<path d="M93.7975 0.0012207L89.7942 5.17778L74.8012 5.19044C74.8012 5.19044 73.7886 5.34864 73.7886 6.24347C73.7886 7.13829 74.4924 7.29523 74.8012 7.29523H88.7994C90.97 7.29523 94.6759 9.54938 94.6759 13.6299C94.6759 17.8977 90.8789 19.9696 88.3868 19.9696H54.0684L61.1864 10.1999L64.5189 14.7867L88.2716 14.8297C88.5456 14.8231 88.8058 14.7084 88.9954 14.5106C89.1851 14.3129 89.2889 14.0481 89.2842 13.7742C89.2857 13.6399 89.2606 13.5066 89.2105 13.382C89.1604 13.2574 89.0862 13.144 88.9921 13.0481C88.898 12.9523 88.786 12.876 88.6623 12.8236C88.5387 12.7711 88.4059 12.7436 88.2716 12.7426H74.548L68.8057 4.78669C69.1639 2.81985 71.456 0.0429876 74.7176 0.0429876C78.2362 0.0429876 93.7975 0.0012207 93.7975 0.0012207Z" fill="#1B1B45"/>
<path d="M52.0985 19.9986H44.5703L57.3712 2.15279C57.7946 1.54074 58.3549 1.03598 59.0078 0.678698C59.6606 0.321418 60.3878 0.121485 61.1315 0.0948182C63.5616 0.00369047 64.5906 1.84523 65.0222 2.44515L72.8414 13.2729H65.3221L61.1315 7.4749L52.0985 19.9986Z" fill="#1B1B45"/>
<path d="M56.5756 0.00881468C56.5756 0.00881468 48.326 0.0012207 41.2497 0.0012207C34.2392 0.0012207 31.251 5.79289 31.251 10.0063C31.251 15.9245 35.6479 19.9936 41.9066 19.9936H42.2724L46.0921 14.812L42.1028 14.7791C40.0068 14.7791 37.3173 13.178 37.2439 9.93794C37.1502 5.63342 41.0358 5.19044 42.1762 5.19044H52.5154L56.5756 0.00881468Z" fill="#1B1B45"/>
<path d="M0 19.9708V0.0012207H20.381L16.4777 5.18537H6.23465V7.26739H18.4002L14.5058 12.3629H6.21187V19.9708H0Z" fill="#1B1B45"/>
<path d="M28.1332 3.38452V19.9736H21.9492V9.56602L28.1332 3.38452Z" fill="#1B1B45"/>
<path d="M29.3052 0.0100098L21.958 7.35718V0.0100098H29.3052Z" fill="#D32618"/>
</g>
<defs>
<clipPath id="clip0_4563_1259">
<rect width="94.6759" height="19.9974" fill="white" transform="translate(0 0.0012207)"/>
</clipPath>
</defs>
</svg>
