<svg xmlns="http://www.w3.org/2000/svg" width="188" height="87" viewBox="0 0 188 87">
  <defs>
    <style>
      .cls-1 {
        fill: #000000;
      }
    </style>
  </defs>
  <title>Logo Gemeinde Koeniz</title>
  <g id="typo">
    <g>
      <g>
        <path class="cls-1" d="M99.31,4.3c-.25-1.5-1.46-2.53-3.65-2.53A4.63,4.63,0,0,0,92,3.14a7.71,7.71,0,0,0-1.73,5.19,8.47,8.47,0,0,0,1.48,5.09A5.52,5.52,0,0,0,96.06,15a11.64,11.64,0,0,0,3.52-.51V9.7h-3.7V7.84h5.94v8a17.82,17.82,0,0,1-5.76,1c-3,0-4.73-.85-5.87-2a8.67,8.67,0,0,1-2.26-6.16c0-1.62.4-5.43,3.47-7.49A8.45,8.45,0,0,1,95.9,0a6.43,6.43,0,0,1,4.78,1.72,3.7,3.7,0,0,1,1.07,2.58Z"/>
        <path class="cls-1" d="M106.08,11.2c0,2.33.92,4.06,3.23,4.06A2.45,2.45,0,0,0,112,12.93h2.11a3.81,3.81,0,0,1-1,2.35,4.85,4.85,0,0,1-3.87,1.5c-3.54,0-5.22-2.19-5.22-5.76,0-2.22.45-4,2.22-5.28a5.32,5.32,0,0,1,3.06-.83c5,0,4.93,4.46,4.89,6.29ZM112,9.72c0-1.07-.18-3.31-2.78-3.31a3,3,0,0,0-3.07,3.31Z"/>
        <path class="cls-1" d="M116.26,6.7l-.05-1.5h2.13V6.83a3.81,3.81,0,0,1,3.56-1.92A3.57,3.57,0,0,1,125.58,7a4,4,0,0,1,3.78-2.1c1.62,0,4.12.67,4.12,4v7.56h-2.12V9.23a2.76,2.76,0,0,0-.38-1.7,2.54,2.54,0,0,0-2.16-1,2.88,2.88,0,0,0-2.39,1.19,4.58,4.58,0,0,0-.5,2.42v6.3h-2.12V9a2.29,2.29,0,0,0-2.47-2.47,3,3,0,0,0-2.46,1.23,4,4,0,0,0-.5,2.29v6.39h-2.12Z"/>
        <path class="cls-1" d="M137.75,11.2c-.05,2.33.92,4.06,3.22,4.06a2.45,2.45,0,0,0,2.65-2.33h2.1a3.73,3.73,0,0,1-1,2.35,4.86,4.86,0,0,1-3.88,1.5c-3.54,0-5.22-2.19-5.22-5.76,0-2.22.45-4,2.22-5.28A5.35,5.35,0,0,1,141,4.91c5,0,4.93,4.46,4.89,6.29Zm5.94-1.48c0-1.07-.18-3.31-2.78-3.31a3,3,0,0,0-3.07,3.31Z"/>
        <path class="cls-1" d="M147.74.31h2.54V2.62h-2.54ZM148,5.2h2.1V16.45H148Z"/>
        <path class="cls-1" d="M153.26,6.5l0-1.3h2.11l0,1.81A3.69,3.69,0,0,1,159,5c1,0,4.08.38,4.08,3.83v7.65H160.9V9.3a2.53,2.53,0,0,0-.61-1.93,2.92,2.92,0,0,0-2-.76c-1.53,0-2.94,1.1-2.94,3.36v6.48h-2.1Z"/>
        <path class="cls-1" d="M173.69.29h2.11V14.65c0,.25,0,1.21.09,1.8h-2.11l0-1.8a3.18,3.18,0,0,1-1,1.19,5.1,5.1,0,0,1-2.78.83c-1.5,0-4.84-.79-4.84-5.71,0-4.28,2.44-6.14,5.09-6.14a3.62,3.62,0,0,1,3.49,1.9Zm-.78,7.24a3.07,3.07,0,0,0-2.47-1.14c-3.09,0-3.09,3.74-3.09,4.5,0,2,.52,4.3,3.09,4.3,3.32,0,3.32-3.65,3.32-4.53A4.8,4.8,0,0,0,172.91,7.53Z"/>
        <path class="cls-1" d="M179.9,11.2c0,2.33.92,4.06,3.23,4.06a2.45,2.45,0,0,0,2.64-2.33h2.11a3.81,3.81,0,0,1-1,2.35,4.85,4.85,0,0,1-3.87,1.5c-3.54,0-5.22-2.19-5.22-5.76,0-2.22.45-4,2.22-5.28a5.33,5.33,0,0,1,3.07-.83c5,0,4.92,4.46,4.88,6.29Zm5.94-1.48c0-1.07-.18-3.31-2.78-3.31A3,3,0,0,0,180,9.72Z"/>
      </g>
      <g>
        <path class="cls-1" d="M87.93,22.73h4.55v7.1l5.17-7.1H103l-5.58,7.13,6,9H97.85l-5.37-8.6v8.6H87.93Z"/>
        <path class="cls-1" d="M110.11,27.28c3.66,0,6.5,1.84,6.5,5.83A6.22,6.22,0,0,1,115,37.56a6.23,6.23,0,0,1-4.64,1.62c-2.49,0-4.1-.61-5.2-1.66a5.73,5.73,0,0,1-1.61-4.28C103.53,29.79,105.66,27.28,110.11,27.28Zm-4.84-4.64h3.84v3.25h-3.84Zm3.16,13.29a1.76,1.76,0,0,0,1.64.9c1.84,0,2.19-2,2.19-3.57,0-1.95-.47-3.58-2.15-3.58-1.86,0-2.21,1.9-2.21,3.58A5.64,5.64,0,0,0,108.43,35.93Zm2.74-13.29H115v3.25h-3.83Z"/>
        <path class="cls-1" d="M118.09,30.06l-.11-2.4h4.21l0,1.73a3.88,3.88,0,0,1,3.74-2c4.12,0,4.12,3.13,4.12,4.68v6.81h-4.21V32.46c0-.79,0-2.38-1.72-2.38-1.89,0-1.89,2-1.89,2.38v6.45h-4.19Z"/>
        <path class="cls-1" d="M132.14,22.78h4.31v3h-4.31Zm.05,4.88h4.21V38.91h-4.21Z"/>
        <path class="cls-1" d="M138,36.06l5.4-5.67h-5.16V27.68h10v2.78l-5.47,5.78h5.74v2.67H138Z"/>
      </g>
    </g>
  </g>
  <g id="wappen">
    <g>
      <path class="cls-1" d="M42,1V39H80V1ZM75,34H47V6H75Z"/>
      <path class="cls-1" d="M42,87h5v-.08C65.36,85.69,79.09,70.55,80,49h0V44H42ZM75.26,48.9C74.45,68.11,63.11,81.18,47,82.33V49Z"/>
      <path class="cls-1" d="M38,44H0v5H.05c.86,21.6,14.59,36.74,33,37.92V87h5Zm-5,5V82.33C16.89,81.18,5.55,68.11,4.74,48.9Z"/>
      <path class="cls-1" d="M0,39H38V1H0ZM5,6H33V34H5Z"/>
    </g>
  </g>
</svg>
