<?xml version="1.0" encoding="utf-8"?>
<!-- Generator: Adobe Illustrator 19.2.1, SVG Export Plug-In . SVG Version: 6.00 Build 0)  -->
<svg version="1.1" id="Layer_1" xmlns="http://www.w3.org/2000/svg" xmlns:xlink="http://www.w3.org/1999/xlink" width="100" height="100" x="0px" y="0px"
	 viewBox="0 0 160 160" style="enable-background:new 0 0 160 160;" xml:space="preserve">
<rect y="0" style="fill:#FFCF3E;" width="160" height="160"/>
<g>
	<g>
		<path style="fill:#CD2027;" d="M19,114.9h14V66.7H19V114.9L19,114.9z M26,59.8c-4.7,0-8-3.3-8-7.5s3.3-7.6,8-7.6s7.9,3.4,7.9,7.6
			S30.8,59.8,26,59.8"/>
		<path style="fill:#CD2027;" d="M79,90.8c0-7.2-4.7-12-11.3-12c-6.7,0-11.4,4.9-11.4,12s4.7,12,11.3,12C74.3,102.7,79,97.9,79,90.8
			 M93,90.8c0,14.7-9.5,25.3-22.4,25.3c-5.9,0.1-11.6-2.4-15.6-6.8h-0.2l-0.5,5.6H42.5v-71h14v26.7h0.2c3.8-3.4,8.8-5.2,13.9-5.1
			C83.5,65.5,93,76.1,93,90.8"/>
		<path style="fill:#CD2027;" d="M128,95.4v-0.3c-2.8-0.6-5.6-0.9-8.4-0.9c-6,0-8.9,1.8-8.9,5.8c0,3.4,2.6,5.8,7.1,5.8
			C123,105.8,128,102.2,128,95.4 M142,86.3v28.6h-11.9l-0.4-4.7h-0.2c-3.1,3.7-7.9,6-14.3,6c-12.2,0-18.6-7.8-18.6-16.2
			c0-10.5,8-16.1,21.2-16.1c3.4,0,6.7,0.3,10.1,0.8v-1.2c0-4-2.6-6.7-8.7-6.7c-4.7,0-9.8,1.4-15,4.7l-6.2-11
			c5.7-2.9,13.9-5.2,21-5.2C134.7,65.4,141.9,73.6,142,86.3"/>
	</g>
</g>
<rect x="135.1" y="43.8" style="fill:#CD2027;" width="14" height="14"/>
<polygon style="fill:#FFFFFF;" points="146.8,49.4 146.8,52.2 143.5,52.2 143.5,55.5 140.7,55.5 140.7,52.2 137.4,52.2 137.4,49.4 
	140.7,49.4 140.7,46.2 143.5,46.2 143.5,49.4 "/>
</svg>
