<svg xmlns="http://www.w3.org/2000/svg" width="190" height="14" fill="none" viewBox="0 0 190 14"><path fill="#09090c" fill-rule="evenodd" d="M137.291.46c4.458 0 6.306 1.33 6.306 4.06v2.689c0 .912-.204 1.194-1.337 1.194h-13.597v1.175c0 .932 1.068 1.709 3.567 1.709h10.568c.669 0 .799.398.799 1.165s-.13 1.194-.799 1.194h-10.652c-4.189 0-6.306-1.35-6.306-4.059V4.52c0-2.728 2.117-4.059 6.306-4.059zM132.23 2.8c-2.499 0-3.567.748-3.567 1.71v1.563h12.101V4.509c0-1.077-1.068-1.709-3.566-1.709z" clip-rule="evenodd"/><path fill="#09090c" d="M106.244.44c.511 0 1.096.117 1.402.535l7.467 9.67 7.495-9.69c.288-.388.845-.505 1.337-.505.827 0 1.579.35 1.579.855 0 .165-.065.32-.204.505l-8.674 11.214c-.316.418-.78.622-1.561.622s-1.244-.204-1.56-.622l.009-.01L104.777 1.8c-.13-.165-.205-.32-.205-.485 0-.534.762-.874 1.672-.874m46.492-.068c.669 0 .799.427.799 1.204s-.13 1.175-.799 1.175h-1.737c-2.21 0-2.944.612-2.944 1.69v8.088c0 .893-.464 1.107-1.43 1.107s-1.402-.214-1.402-1.107V4.44c0-2.709 2.052-4.068 5.776-4.068zM77.49.44c1.096 0 1.654.535 1.654 1.583V12.53c0 .884-.511 1.098-1.496 1.098-.984 0-1.495-.214-1.495-1.098V5.237l-7.578 7.506c-.511.63-.985.883-1.765.883-.845 0-1.402-.281-1.876-.883l-7.597-7.496v7.292c0 .883-.51 1.097-1.495 1.097-.984 0-1.468-.213-1.468-1.097V2.023c0-1.048.558-1.582 1.626-1.582.761 0 1.319.281 1.764.815l8.935 9.186 9.027-9.186c.464-.582 1.05-.815 1.765-.815M82.635.44c.938 0 1.43.214 1.43 1.098v11c0 .884-.464 1.098-1.43 1.098-.965 0-1.402-.213-1.402-1.097V1.538c0-.884.464-1.097 1.402-1.097"/><path fill="#09090c" fill-rule="evenodd" d="M183.653.354c4.458 0 6.306 1.34 6.306 4.087v2.7c0 .912-.204 1.194-1.337 1.194h-13.597v1.213c0 .942 1.068 1.71 3.567 1.71h10.569c.668 0 .798.398.798 1.174 0 .777-.13 1.194-.798 1.194h-10.653c-4.189 0-6.306-1.359-6.306-4.087V4.44c0-2.748 2.117-4.087 6.306-4.087zm-5.061 2.388c-2.499 0-3.567.748-3.567 1.709v1.573h12.102V4.45c0-1.078-1.068-1.709-3.567-1.709z" clip-rule="evenodd"/><path fill="#09090c" d="M87.354.431c.798 0 1.133.068 1.448.32l5.885 4.717L100.45.76c.315-.252.603-.32 1.541-.32s1.561.097 1.561.757c0 .301-.13.457-.65.874l-6.223 4.99 6.288 4.924c.51.417.65.572.65.893 0 .64-.539.738-1.514.738-.845 0-1.18-.068-1.514-.32L94.57 8.49l-5.907 4.806c-.353.272-.687.32-1.467.32-.985 0-1.607-.067-1.607-.756 0-.301.112-.457.622-.874l6.353-5.088-6.148-4.836c-.511-.417-.623-.621-.623-.893 0-.621.511-.738 1.56-.738m82.546-.068c.668 0 .826.398.826 1.194s-.158 1.175-.826 1.175h-10.096c-1.671 0-2.479.447-2.479 1.175v.611c0 .729.798 1.195 2.591 1.195h4.922c4.17 0 5.888 1.31 5.888 3.563v.748c0 2.252-1.829 3.592-6.306 3.593h-9.027c-.669 0-.827-.399-.827-1.195s.158-1.175.827-1.175h9.454c2.387 0 3.028-.446 3.028-1.175v-.844c0-.729-.65-1.195-2.944-1.195h-4.997c-3.584 0-5.414-1.31-5.414-3.476v-.67c0-2.184 1.83-3.524 5.303-3.524zM29.46 5.214c.544 0 .98.075 1.286.253q.235.136.361.358.123.225.122.505v1.186q.001.28-.122.505a.95.95 0 0 1-.361.358c-.306.178-.742.252-1.285.252h-1.246c-.543 0-.98-.074-1.285-.252a.95.95 0 0 1-.362-.358 1 1 0 0 1-.12-.505V6.33c0-.186.037-.356.12-.505a.95.95 0 0 1 .362-.358c.305-.178.742-.253 1.285-.253z"/><path fill="#09090c" fill-rule="evenodd" d="M10.378.188c.95.02 1.872.337 2.634.908l5.331 3.996 5.332-3.996a4.54 4.54 0 0 1 2.726-.909h5.077l.117.002a4.545 4.545 0 0 1 4.427 4.543V9.11a4.544 4.544 0 0 1-4.544 4.544H26.4a4.54 4.54 0 0 1-2.725-.908L11.256 3.437c-.28-.21-.62-.323-.97-.323H5.21c-.893 0-1.618.725-1.618 1.618V9.11c0 .893.725 1.617 1.618 1.617h5.077c.35 0 .69-.113.97-.323l2.15-1.611 2.44 1.828-2.834 2.125a4.55 4.55 0 0 1-2.726.908H5.21A4.544 4.544 0 0 1 .665 9.11V4.732A4.544 4.544 0 0 1 5.209.188zm16.023 2.926c-.35 0-.69.114-.97.323l-4.648 3.484 4.647 3.483c.28.21.62.323.97.323h5.078c.893 0 1.617-.724 1.617-1.617V4.732c0-.893-.724-1.618-1.617-1.618z" clip-rule="evenodd"/></svg>